<svg version="1.1"
	 xmlns="http://www.w3.org/2000/svg" xmlns:xlink="http://www.w3.org/1999/xlink" x="0px" y="0px" width="152.7px" height="74.8px"
	 viewBox="0 0 152.7 74.8" enable-background="new 0 0 152.7 74.8" xml:space="preserve">
	<path fill="#FFFFFF" d="M152.7,60c0,8.2-6.6,14.8-14.8,14.8c-0.8,0-1.6-0.1-2.4-0.2c-0.9,0.1-1.9,0.2-3,0.2H24
				c-0.3,0-0.5,0-0.7,0c-0.2,0-0.5,0-0.7,0c-1.4-0.1-2.9-0.3-4.2-0.6c0,0,0,0-0.1,0C7.8,71.5,0,62.1,0,50.8C0,38.9,8.7,29,20.1,27.2
				C21.5,11.9,34.4,0,50,0c9.8,0,18.6,4.7,24,12.1c3.3-2.8,7.6-4.5,12.3-4.5c10.4,0,18.9,8.3,19.2,18.6c3.2-1.7,6.8-2.7,10.7-2.7
				c12.2,0,22.1,9.6,22.5,21.7C146.5,45.7,152.7,52.1,152.7,60z"/>
</svg>
