<svg x="0px" y="0px" viewBox="0 0 512 512" xmlns="http://www.w3.org/2000/svg" width="100" height="100">
	<style>
		#dog {
			fill: #CC0099;
		}
		#dog path,
		#dog polygon {
			opacity: 0.85;
		}
	</style>
	<g id="dog">
		<path d="M282.5,331.8c0,0,0.4,0.5,1.1,1.4c0.7,0.9,1.7,2.3,3,4c1.3,1.7,2.8,3.9,4.5,6.4c1.7,2.5,3.6,5.3,5.6,8.3
			c2,3.1,4.1,6.4,6.3,10c1.1,1.8,2.2,3.6,3.4,5.5c1.1,1.9,2.3,3.8,3.4,5.8c1.2,2,2.3,4,3.5,6c1.2,2,2.3,4.1,3.5,6.2
			c2.3,4.2,4.7,8.5,6.9,12.8c1.1,2.2,2.3,4.3,3.4,6.5c1.1,2.2,2.2,4.3,3.3,6.4c2.2,4.3,4.2,8.5,6.2,12.6c4,8.2,7,16.1,9,23.3
			c1,3.6,1.7,6.9,2.3,9.9c0.6,3,0.9,5.7,1.1,8c0.2,2.3,0.3,4.1,0.3,5.3c0,1.3,0,2,0,2c-1.6,23.1-21.6,40.5-44.7,38.9
			c-7.9-0.6-15.2-3.3-21.2-7.6c0,0-0.6-0.4-1.5-1.2c-1-0.8-2.3-2-4-3.6c-1.6-1.6-3.5-3.5-5.5-5.9c-2-2.3-4.1-5-6.2-8
			c-4.3-6-8.5-13.4-12.3-21.7c-1.9-4.1-3.9-8.4-5.9-12.8c-1-2.2-2-4.4-2.9-6.6c-1-2.2-1.9-4.5-2.9-6.7c-1.9-4.5-3.7-9-5.5-13.4
			c-0.9-2.2-1.7-4.4-2.6-6.6c-0.9-2.2-1.7-4.4-2.5-6.5c-0.8-2.1-1.6-4.3-2.3-6.3c-0.7-2.1-1.5-4.1-2.1-6.1c-1.4-4-2.6-7.7-3.7-11.2
			c-1.1-3.5-2.1-6.7-2.9-9.6c-0.8-2.9-1.5-5.4-2.1-7.5c-0.5-2.1-1-3.7-1.2-4.9c-0.3-1.1-0.4-1.7-0.4-1.7
			c-4.5-20.2,8.2-40.2,28.3-44.7C259.4,315.1,273.8,320.8,282.5,331.8z"/>
		<path d="M319.2,328.2c0,0,0.4,0.5,1.1,1.3c0.7,0.9,1.7,2.2,2.9,3.9c1.2,1.7,2.7,3.7,4.3,6.1c1.6,2.4,3.4,5.1,5.3,8
			c1.9,2.9,3.9,6.2,6.1,9.6c2.1,3.4,4.3,7.1,6.5,10.9c4.4,7.6,8.9,15.8,13.1,24c2.1,4.1,4.2,8.3,6.3,12.4c2,4.1,4,8.2,5.8,12.1
			c1.9,3.9,3.6,7.8,5,11.6c1.4,3.8,2.5,7.4,3.4,10.8c0.9,3.4,1.6,6.6,2,9.6c0.5,2.9,0.7,5.5,0.9,7.7c0.1,2.2,0.2,3.9,0.1,5.1
			c0,1.2-0.1,1.9-0.1,1.9c-2.3,23.3-23,40.3-46.2,38.1c-7.4-0.7-14.3-3.4-20-7.3c0,0-0.6-0.4-1.5-1.1c-0.9-0.8-2.3-1.9-3.8-3.4
			c-1.5-1.5-3.4-3.4-5.3-5.6c-1.9-2.2-3.9-4.8-6-7.7c-2-2.9-4.1-6.1-6-9.6c-2-3.5-3.8-7.3-5.6-11.2c-1.8-4-3.7-8.1-5.5-12.3
			c-1.8-4.2-3.7-8.5-5.4-12.8c-3.5-8.6-6.9-17.3-9.9-25.5c-1.5-4.1-2.8-8.1-4.1-11.9c-1.2-3.8-2.4-7.4-3.4-10.8
			c-1-3.4-1.9-6.5-2.7-9.3c-0.8-2.8-1.4-5.2-1.9-7.2c-0.5-2-0.9-3.6-1.1-4.7c-0.2-1.1-0.3-1.7-0.3-1.7c-4.2-20.3,8.9-40.1,29.2-44.3
			C296.5,311.7,310.7,317.4,319.2,328.2z"/>
		<path d="M114.1,353.3c0,0-0.1,0.6-0.3,1.7c-0.2,1.1-0.5,2.7-0.9,4.7c-0.4,2-0.9,4.4-1.6,7.1
			c-0.7,2.7-1.4,5.8-2.3,9.1c-0.4,1.7-0.9,3.4-1.4,5.2c-0.5,1.8-1,3.6-1.6,5.5c-1.1,3.8-2.3,7.7-3.7,11.8c-2.7,8.1-5.7,16.7-9,25.2
			c-1.6,4.2-3.3,8.5-5,12.6c-1.7,4.1-3.4,8.2-5.2,12.1c-3.5,7.8-7.5,14.7-11.3,20.5c-1.9,2.9-3.8,5.5-5.5,7.8
			c-1.8,2.3-3.4,4.2-4.8,5.8c-2.8,3.1-4.8,4.8-4.8,4.8c-14.2,11.9-35.4,10.1-47.4-4.2c-4.8-5.7-7.4-12.5-7.8-19.4
			c0,0-0.2-2.5,0.2-6.7c0.1-2.1,0.4-4.6,0.8-7.4c0.4-2.8,1-6,1.8-9.4c1.5-6.8,3.9-14.4,7.1-22.3c1.6-4,3.4-8,5.2-12.1
			c1.8-4.1,3.7-8.2,5.7-12.3c3.9-8.2,8-16.4,12-23.9c2-3.8,4-7.4,6-10.8c1-1.7,1.9-3.4,2.9-5c1-1.6,1.8-3.1,2.8-4.6
			c1.8-2.9,3.5-5.6,5-8c1.5-2.4,2.9-4.4,4.1-6.1c1.2-1.7,2.1-3,2.8-3.8c0.7-0.9,1-1.3,1-1.3c10.3-13.6,29.7-16.3,43.3-6
			C111.6,330.9,115.8,342.4,114.1,353.3z"/>
		<path d="M144,364.4c0,0-0.1,0.5-0.2,1.5c-0.1,1-0.3,2.4-0.6,4.2c-0.3,1.8-0.6,4-1.1,6.5c-0.5,2.5-1,5.3-1.7,8.3
			c-0.3,1.5-0.7,3.1-1.1,4.7c-0.4,1.6-0.8,3.3-1.2,5c-0.9,3.4-1.8,7.1-2.9,10.8c-2.1,7.4-4.6,15.3-7.3,23c-1.4,3.9-2.7,7.7-4.2,11.5
			c-1.4,3.8-2.8,7.5-4.3,11c-3,7.1-6.4,13.4-9.8,18.7c-1.7,2.6-3.4,5-5,7.1c-1.6,2.1-3.1,3.8-4.4,5.2c-2.6,2.8-4.4,4.3-4.4,4.3
			c-14.7,12-36.4,9.7-48.4-5c-4.1-5-6.6-11-7.4-17c0,0-0.3-2.3-0.3-6.2c0-1.9,0.1-4.2,0.4-6.8c0.2-2.6,0.6-5.5,1.2-8.6
			c1.1-6.2,3-13.2,5.6-20.4c1.3-3.6,2.8-7.3,4.4-11c1.5-3.7,3.2-7.5,4.8-11.2c3.3-7.5,6.9-14.9,10.4-21.8c1.8-3.4,3.5-6.7,5.3-9.8
			c0.8-1.6,1.7-3.1,2.5-4.5c0.8-1.5,1.6-2.9,2.4-4.2c1.6-2.7,3.1-5.1,4.5-7.3c1.4-2.1,2.6-4,3.6-5.5c1-1.5,1.9-2.7,2.5-3.5
			c0.6-0.8,0.9-1.2,0.9-1.2c10.4-13.7,29.9-16.5,43.6-6.1C140.8,343.1,145.1,353.9,144,364.4z"/>
		<path d="M477.1,185.2c0,0-1.7,2-5,4.8c-1.6,1.4-3.6,2.9-6,4.6c-2.3,1.6-5,3.3-8,5c-5.9,3.3-13.1,6.5-21,9.1
			c-4,1.3-8.1,2.4-12.3,3.5c-4.2,1.1-8.5,2.2-12.8,3.2c-8.6,2-17.3,3.7-25.6,5c-8.2,1.3-16,2.3-22.8,2.8c-3.4,0.3-6.5,0.5-9.2,0.6
			c-1.4,0.1-2.7,0.1-3.9,0.1c-1.2,0-2.3,0-3.3,0.1c-2,0-3.6,0-4.7,0c-1.1,0-1.7-0.1-1.7-0.1c-17.4-0.8-31-15.5-30.2-33
			c0.5-10.3,5.9-19.3,13.8-24.7c0,0,0.5-0.3,1.4-0.9c0.9-0.6,2.2-1.5,4-2.5c0.9-0.5,1.8-1.1,2.8-1.7c1-0.6,2.2-1.2,3.4-1.9
			c2.4-1.3,5.2-2.8,8.2-4.3c6-3.1,13.1-6.3,20.8-9.6c7.7-3.2,16-6.3,24.4-9.2c4.2-1.4,8.4-2.8,12.6-4c4.2-1.3,8.3-2.5,12.3-3.5
			c8-2,15.8-3,22.6-3.3c3.4-0.2,6.6-0.1,9.4,0.1c2.9,0.2,5.4,0.4,7.5,0.8c4.2,0.6,6.7,1.4,6.7,1.4c19,6.1,29.4,26.5,23.2,45.5
			C482.4,177.5,480,181.7,477.1,185.2z"/>
		<path d="M251.5,180.2c0,0-1.4-1.9-3.3-5.4c-1-1.7-2.1-3.8-3.2-6.2c-0.6-1.2-1.1-2.5-1.8-3.9
			c-0.6-1.4-1.2-2.8-1.8-4.3c-0.6-1.5-1.2-3.1-1.8-4.7c-0.6-1.6-1.1-3.3-1.7-5c-0.6-1.7-1.1-3.5-1.6-5.4c-0.5-1.8-1-3.7-1.5-5.6
			c-2-7.6-3.4-15.9-4.4-24.1c-0.5-4.1-0.9-8.3-1.1-12.4c-0.2-4.1-0.4-8.2-0.3-12.1c0-2,0-3.9,0.1-5.8c0.1-1.9,0.1-3.8,0.3-5.6
			c0.2-3.6,0.6-7.1,1-10.3c0.8-6.4,2-11.8,3-15.6c0.5-1.9,1-3.4,1.3-4.4c0.3-1,0.6-1.6,0.6-1.6l1.8-4.7c6.3-16.3,24.6-24.3,40.9-18
			c7.6,3,13.4,8.6,16.8,15.3c0,0,0.2,0.5,0.7,1.4c0.4,0.9,1,2.3,1.7,4.1c0.7,1.8,1.5,3.9,2.3,6.3c0.8,2.5,1.7,5.2,2.6,8.3
			c0.9,3,1.8,6.3,2.7,9.8c0.9,3.5,1.7,7.2,2.5,11.1c0.2,1,0.4,1.9,0.6,2.9c0.2,1,0.4,2,0.5,3c0.4,2,0.8,4,1.1,6c0.3,2,0.7,4.1,1,6.1
			c0.3,2.1,0.6,4.1,0.8,6.2c0.5,4.1,1,8.3,1.3,12.4c0.2,2,0.4,4.1,0.5,6.1c0.1,2,0.3,4,0.3,6c0.2,3.9,0.3,7.7,0.3,11.3
			c0,1.8,0,3.6,0,5.3c-0.1,1.7-0.1,3.4-0.1,4.9c-0.1,3.2-0.3,6.1-0.6,8.7c-0.2,2.6-0.5,4.9-0.8,6.7c-0.2,1.9-0.5,3.3-0.7,4.4
			c-0.2,1-0.3,1.5-0.3,1.5c-3.9,17.1-20.9,27.7-38,23.8c-7.7-1.8-14.1-6.2-18.4-12.1L251.5,180.2z"/>
		<path d="M328.5,49.9c0,0,1.4,1.7,3.3,4.8c1,1.6,2,3.4,3.2,5.6c0.6,1.1,1.1,2.3,1.8,3.5c0.6,1.2,1.2,2.5,1.8,3.9
			c0.6,1.4,1.1,2.8,1.8,4.3c0.6,1.5,1.1,3,1.7,4.6c0.6,1.6,1,3.2,1.6,4.9c0.5,1.7,1,3.4,1.5,5.1c1.9,6.9,3.3,14.4,4.3,22
			c0.5,3.8,0.8,7.6,1,11.3c0.2,3.7,0.4,7.4,0.3,11c0,1.8,0,3.6-0.1,5.3c-0.1,1.7-0.1,3.4-0.3,5.1c-0.3,3.3-0.6,6.5-1.1,9.4
			c-0.9,5.9-2.1,10.8-3.1,14.3c-0.5,1.7-1,3.1-1.3,4.1c-0.3,0.9-0.6,1.5-0.6,1.5l-2.2,5.1c-6.9,16.2-25.7,23.7-41.9,16.8
			c-6.9-2.9-12.2-8-15.5-14.1c0,0-0.2-0.4-0.6-1.3c-0.4-0.9-1-2.1-1.6-3.7c-0.7-1.6-1.5-3.5-2.3-5.8c-0.8-2.2-1.7-4.8-2.6-7.5
			c-0.9-2.8-1.8-5.8-2.6-8.9c-0.8-3.2-1.7-6.6-2.4-10c-0.2-0.9-0.4-1.8-0.6-2.6c-0.2-0.9-0.3-1.8-0.5-2.7c-0.3-1.8-0.7-3.6-1-5.5
			c-0.3-1.8-0.6-3.7-0.9-5.6c-0.3-1.9-0.5-3.8-0.8-5.6c-0.5-3.8-0.9-7.5-1.2-11.3c-0.2-1.9-0.3-3.7-0.4-5.6
			c-0.1-1.8-0.3-3.6-0.3-5.4c-0.2-3.6-0.2-7-0.2-10.3c0-1.7,0-3.3,0.1-4.8c0.1-1.6,0.1-3.1,0.2-4.5c0.2-2.9,0.4-5.6,0.6-7.9
			c0.2-2.4,0.5-4.4,0.8-6.2c0.2-1.7,0.5-3.1,0.7-4c0.2-0.9,0.3-1.4,0.3-1.4c4.4-17.1,21.9-27.4,39-23c6.9,1.8,12.7,5.7,16.9,10.9
			L328.5,49.9z"/>
		<path d="M327.7,224.2c0,0-0.1,1.6-0.4,4.3c-0.4,2.7-1,6.5-2,11c-0.5,2.2-1.1,4.6-1.8,7.2c-0.3,1.3-0.7,2.5-1.1,3.9
			c-0.4,1.3-0.8,2.6-1.2,4c-1.7,5.4-3.8,11.1-6.1,16.6c-2.3,5.6-4.8,11-7.4,16.1c-0.7,1.2-1.3,2.5-2,3.7c-0.7,1.2-1.3,2.3-2,3.5
			c-0.7,1.1-1.3,2.2-2,3.3c-0.7,1-1.3,2-1.9,3c-0.6,1-1.3,1.9-1.9,2.7c-0.6,0.9-1.2,1.7-1.7,2.4c-1.1,1.5-2.1,2.8-3,3.9
			c-1.7,2.1-2.9,3.3-2.9,3.3c-12.6,12.6-33.1,12.7-45.8,0c-6.4-6.4-9.6-15-9.5-23.4c0,0,0-1.6,0.3-4.4c0.1-1.4,0.4-3,0.7-4.9
			c0.2-0.9,0.3-1.9,0.5-3c0.2-1,0.4-2.1,0.7-3.2c0.3-1.1,0.5-2.3,0.8-3.5c0.3-1.2,0.6-2.4,1-3.7c0.4-1.3,0.7-2.5,1.1-3.9
			c0.4-1.3,0.8-2.6,1.3-4c1.8-5.4,3.9-11,6.3-16.5c2.4-5.5,5-11,7.7-16c0.7-1.3,1.3-2.5,2-3.7c0.7-1.2,1.3-2.4,2-3.5
			c1.3-2.3,2.6-4.4,3.9-6.3c2.5-3.8,4.8-7,6.5-9.1c1.7-2.1,2.8-3.3,2.8-3.3c12.1-12.9,32.4-13.5,45.2-1.4
			C324.6,206.1,328,215.2,327.7,224.2z"/>
		<path d="M240.2,345.5c0,0-1.9,0.4-5.1,1.1c-1.6,0.3-3.6,0.6-5.9,1c-2.3,0.3-4.8,0.7-7.6,1
			c-2.8,0.3-5.8,0.7-9.1,0.9c-1.6,0.1-3.3,0.3-4.9,0.4c-1.7,0.1-3.4,0.2-5.2,0.3c-3.5,0.2-7.1,0.4-10.8,0.5
			c-1.8,0.1-3.7,0.1-5.6,0.1c-1.9,0-3.7,0.1-5.6,0.1c-3.7,0-7.5,0-11.2,0c-3.7-0.1-7.3-0.1-10.8-0.3c-1.8-0.1-3.5-0.1-5.2-0.2
			c-1.7-0.1-3.3-0.2-5-0.3c-3.2-0.2-6.3-0.4-9.1-0.7c-5.6-0.5-10.3-1.1-13.6-1.6c-1.6-0.2-2.9-0.5-3.8-0.6c-0.9-0.2-1.3-0.2-1.3-0.2
			c-16.6-3-27.6-19-24.6-35.6c2.3-12.6,12-22,23.8-24.4c0,0,0.5-0.1,1.3-0.3c0.9-0.2,2.2-0.4,3.8-0.7c3.3-0.6,7.9-1.3,13.5-1.9
			c2.8-0.3,5.8-0.6,9.1-0.9c1.6-0.2,3.3-0.3,4.9-0.4c1.7-0.1,3.4-0.3,5.2-0.4c3.5-0.2,7.1-0.4,10.8-0.6c3.7-0.1,7.4-0.3,11.2-0.3
			c1.9,0,3.7-0.1,5.6-0.1c1.9,0,3.7,0,5.6,0c3.7,0,7.3,0.1,10.8,0.2c1.8,0.1,3.5,0.1,5.2,0.2c1.7,0.1,3.3,0.2,5,0.3
			c3.2,0.2,6.3,0.5,9.1,0.7c2.8,0.3,5.4,0.6,7.7,0.8c2.3,0.3,4.3,0.6,5.9,0.8c3.3,0.5,5.2,0.9,5.2,0.9c16.6,3.5,27.2,19.9,23.7,36.5
			C260.5,333.9,251.3,342.8,240.2,345.5z"/>
		<path d="M70.3,312.5c0,0-1.1-1.1-2.9-3.2c-1.8-2-4.1-5-6.8-8.7c-1.3-1.8-2.7-3.9-4.1-6c-0.7-1.1-1.4-2.2-2.1-3.3
			c-0.7-1.2-1.4-2.3-2.1-3.5c-2.9-4.8-5.7-10-8.3-15.4c-2.6-5.3-5.1-10.7-7-16c-1.9-5.2-3.4-10.3-4.4-14.7c-0.3-1.1-0.5-2.2-0.7-3.2
			c-0.2-1-0.4-2-0.5-2.9c-0.3-1.9-0.5-3.5-0.6-4.9c-0.2-2.8-0.2-4.4-0.2-4.4c0.6-18.5,16.2-33,34.7-32.4c7.5,0.3,14.3,3,19.8,7.3
			c0,0,1.3,1,3.2,3c1,1,2.1,2.2,3.3,3.6c0.6,0.7,1.3,1.5,1.9,2.3c0.7,0.8,1.3,1.7,2,2.6c2.7,3.6,5.6,8,8.3,12.9
			c2.7,4.9,5.2,10.3,7.6,15.7c2.3,5.5,4.5,11,6.2,16.3c0.4,1.3,0.9,2.6,1.3,3.9c0.4,1.3,0.8,2.6,1.1,3.8c0.7,2.5,1.4,4.8,1.9,7
			c1.1,4.4,1.8,8.2,2.2,10.8c0.4,2.7,0.5,4.2,0.5,4.2c1.2,17.7-12.1,33-29.7,34.2C85.5,322.4,76.6,318.7,70.3,312.5z"/>
		<polygon points="502.7,134.8 511.9,163.9 480,156.2 "/>
	</g>
</svg>
